<svg width="168" height="159" viewBox="0 0 168 159" fill="none" xmlns="http://www.w3.org/2000/svg">
<path d="M1.86667 54.303H68.6424C70.0566 45.0828 70.9616 34.6748 71.3576 23.0788H11.2V0H157.818V23.0788H96.1333C95.6808 32.9778 95.0586 43.3859 94.2667 54.303H166.473V77.7212H101.564C114.065 106.287 136.21 125.236 168 134.57C163.362 139.774 156.8 147.806 148.315 158.667C118.448 146.109 96.7273 124.105 83.1515 92.6546C73.0828 118.505 51.7576 140.226 19.1758 157.818C14.7636 152.162 8.37172 144.921 0 136.097C36.202 119.693 57.3293 100.234 63.3818 77.7212H1.86667V54.303Z" fill="#4A168F"/>
</svg>
