<svg width="151" height="153" viewBox="0 0 151 153" fill="none" xmlns="http://www.w3.org/2000/svg">
<path d="M85.0011 152.357C83.4176 144.44 81.3817 135.843 78.8933 126.569C91.0525 127.36 101.402 127.756 109.942 127.756C117.181 127.756 121.479 124.448 122.836 117.831C124.25 111.214 125.155 79.5154 125.551 22.7348H5.42921V0H151C150.83 21.8865 150.378 46.0069 149.643 72.3613L147.946 123.515C147.55 131.263 145.373 137.484 141.414 142.178C137.455 146.872 132.196 149.699 125.635 150.661C119.132 151.622 105.587 152.188 85.0011 152.357ZM27.1461 44.6214L41.0584 26.8067C59.0427 39.0225 74.3124 49.9375 86.8674 59.5517L70.0708 79.9113C55.706 67.4693 41.3978 55.706 27.1461 44.6214ZM0 105.7C42.8682 93.8236 82.2865 81.4948 118.255 68.7135C118.255 74.0296 118.368 82.0603 118.594 92.8056C85.7929 104.795 49.2023 117.746 8.82247 131.658L0 105.7Z" fill="#4A168F"/>
</svg>
