<svg width="782" height="170" viewBox="0 0 782 170" fill="none" xmlns="http://www.w3.org/2000/svg">
<path d="M715.152 165.424C713.57 157.514 711.536 148.927 709.051 139.661C721.198 140.452 731.537 140.847 740.068 140.847C747.299 140.847 751.593 137.542 752.949 130.932C754.361 124.322 755.265 92.6554 755.661 35.9322H635.661V13.2203H781.085C780.915 35.0847 780.463 59.1808 779.729 85.5085L778.034 136.61C777.638 144.35 775.463 150.565 771.508 155.254C767.553 159.943 762.299 162.768 755.746 163.729C749.248 164.689 735.717 165.254 715.152 165.424ZM657.356 57.7966L671.254 40C689.22 52.2034 704.474 63.1073 717.017 72.7118L700.237 93.0508C685.887 80.6215 671.593 68.87 657.356 57.7966ZM630.237 118.814C673.062 106.949 712.44 94.6328 748.373 81.8644C748.373 87.1751 748.486 95.1977 748.712 105.932C715.943 117.91 679.39 130.847 639.051 144.746L630.237 118.814Z" fill="#4A168F"/>
<path d="M452.475 1.35593C459.255 9.03955 466.147 17.6271 473.153 27.1187L465.611 32.2034H493.916C489.17 23.1074 484.791 15.4237 480.78 9.15254L501.458 0C505.978 6.89266 511.288 15.8192 517.39 26.7797L505.695 32.2034H526.458C534.198 21.0735 540.724 11.4124 546.034 3.22034L568.916 15.7627L555.187 32.2034H579.594V73.8983H555.865V52.8814H445.187V73.8983H421.458V32.2034H449.17C444.198 25.3672 439.368 19.0961 434.678 13.3898L452.475 1.35593ZM418.577 104.746H492.644V100.339L515.356 85.5932H453.322V64.9153H548.746V85.4238L519.594 104.746H582.814V125.763H517.051V143.051C517.051 150.848 514.876 156.921 510.526 161.271C506.175 165.622 499.509 167.825 490.526 167.881C481.599 167.938 472.418 167.966 462.983 167.966C461.401 160.17 459.481 152.712 457.221 145.593C465.808 146.045 473.661 146.271 480.78 146.271C488.69 146.271 492.644 142.825 492.644 135.932V125.763H418.577V104.746Z" fill="#4A168F"/>
<path d="M210.136 65.7627H276.83C278.243 56.5537 279.147 46.1582 279.542 34.5762H219.458V11.5254H365.898V34.5762H304.288C303.836 44.4633 303.215 54.8587 302.424 65.7627H374.542V89.1525H309.712C322.198 117.684 344.316 136.61 376.068 145.932C371.435 151.13 364.881 159.153 356.407 170C326.576 157.458 304.881 135.48 291.322 104.068C281.265 129.887 259.966 151.582 227.424 169.153C223.017 163.503 216.633 156.271 208.271 147.458C244.429 131.073 265.531 111.638 271.576 89.1525H210.136V65.7627Z" fill="#4A168F"/>
<path d="M1.86441 65.7627H68.5593C69.9718 56.5537 70.8757 46.1582 71.2712 34.5762H11.1864V11.5254H157.627V34.5762H96.017C95.565 44.4633 94.9435 54.8587 94.1525 65.7627H166.271V89.1525H101.441C113.927 117.684 136.045 136.61 167.797 145.932C163.164 151.13 156.61 159.153 148.136 170C118.305 157.458 96.6102 135.48 83.0508 104.068C72.9944 129.887 51.6949 151.582 19.1525 169.153C14.7458 163.503 8.36158 156.271 0 147.458C36.1582 131.073 57.2599 111.638 63.3051 89.1525H1.86441V65.7627Z" fill="#4A168F"/>
</svg>
