<svg width="165" height="168" viewBox="0 0 165 168" fill="none" xmlns="http://www.w3.org/2000/svg">
<path d="M33.9051 1.35621C40.6862 9.04137 47.5802 17.6307 54.5873 27.1241L47.0434 32.2099H75.3542C70.6075 23.112 66.228 15.4268 62.2159 9.15439L82.8981 0C87.4188 6.89405 92.7306 15.8224 98.8335 26.7851L87.1362 32.2099H107.903C115.645 21.0777 122.172 11.4147 127.483 3.22099L150.369 15.7659L136.638 32.2099H161.049V73.9132H137.316V52.892H26.6155V73.9132H2.88194V32.2099H30.5994C25.6266 25.3724 20.7952 19.0999 16.1049 13.3925L33.9051 1.35621ZM0 104.767H74.0827V100.359L96.7992 85.6105H34.7528V64.9284H130.196V85.441L101.037 104.767H164.27V125.788H98.4944V143.08C98.4944 150.878 96.3189 156.953 91.9677 161.304C87.6165 165.655 80.9485 167.859 71.9637 167.915C63.0353 167.972 53.8527 168 44.4157 168C42.8335 160.202 40.9122 152.743 38.6519 145.623C47.2412 146.075 55.0959 146.301 62.2159 146.301C70.1271 146.301 74.0827 142.854 74.0827 135.96V125.788H0V104.767Z" fill="#4A168F"/>
</svg>
