<svg width="57" height="62" viewBox="0 0 57 62" fill="none" xmlns="http://www.w3.org/2000/svg">
<path d="M39.2481 35.144V0H56.2224V61.2031H39.9254V50.0861H39.288C37.9066 53.6722 35.6088 56.5544 32.3946 58.7326C29.2069 60.9109 25.3153 62 20.7198 62C16.629 62 13.0296 61.0703 9.92164 59.2108C6.81367 57.3513 4.38307 54.7082 2.62986 51.2815C0.903206 47.8548 0.0265638 43.7506 0 38.9692V0H16.9743V35.9409C17.0009 39.5536 17.9705 42.4092 19.8831 44.5077C21.7957 46.6063 24.359 47.6555 27.5733 47.6555C29.6187 47.6555 31.5313 47.1907 33.3111 46.2609C35.0909 45.3046 36.5253 43.8967 37.6144 42.0373C38.7301 40.1778 39.2746 37.88 39.2481 35.144Z" fill="#D1BBE1"/>
</svg>
