<svg width="55" height="64" viewBox="0 0 55 64" fill="none" xmlns="http://www.w3.org/2000/svg">
<path d="M20.4 63.4C16.48 63.4 12.9867 62.72 9.91998 61.36C6.85332 59.9734 4.42667 57.9334 2.64 55.24C0.88 52.52 0 49.1334 0 45.08C0 41.6667 0.626657 38.8 1.87999 36.48C3.13332 34.16 4.84001 32.2933 7.00001 30.88C9.16001 29.4667 11.6134 28.4 14.36 27.68C17.1334 26.96 20.04 26.4533 23.08 26.16C26.6533 25.7867 29.5333 25.44 31.72 25.12C33.9067 24.7733 35.4934 24.2667 36.48 23.6C37.4667 22.9333 37.96 21.9467 37.96 20.64V20.4C37.96 17.8667 37.16 15.9067 35.56 14.52C33.9867 13.1333 31.7467 12.44 28.84 12.44C25.7733 12.44 23.3333 13.12 21.52 14.48C19.7067 15.8133 18.5067 17.4933 17.92 19.52L2.16 18.24C2.96 14.5067 4.53335 11.28 6.88002 8.56001C9.22668 5.81333 12.2533 3.70666 15.96 2.24C19.6933 0.746667 24.0134 0 28.92 0C32.3334 0 35.6 0.400003 38.72 1.2C41.8667 2 44.6534 3.24 47.08 4.92C49.5334 6.6 51.4667 8.76001 52.88 11.4C54.2933 14.0133 55 17.1467 55 20.8V62.24H38.84V53.72H38.36C37.3733 55.64 36.0533 57.3334 34.4 58.8C32.7467 60.24 30.76 61.3734 28.44 62.2C26.12 63 23.44 63.4 20.4 63.4ZM25.28 51.64C27.7867 51.64 30 51.1467 31.92 50.16C33.84 49.1467 35.3467 47.7867 36.44 46.08C37.5334 44.3734 38.08 42.44 38.08 40.28V33.76C37.5467 34.1067 36.8134 34.4267 35.88 34.72C34.9734 34.9867 33.9467 35.24 32.8 35.48C31.6534 35.6934 30.5067 35.8934 29.36 36.08C28.2134 36.24 27.1734 36.3867 26.24 36.52C24.24 36.8133 22.4934 37.28 21 37.92C19.5067 38.56 18.3467 39.4267 17.52 40.52C16.6933 41.5867 16.28 42.92 16.28 44.52C16.28 46.84 17.12 48.6134 18.8 49.84C20.5067 51.04 22.6667 51.64 25.28 51.64Z" fill="#D1BBE1"/>
</svg>
