<svg width="60" height="83" viewBox="0 0 60 83" fill="none" xmlns="http://www.w3.org/2000/svg">
<path d="M24.944 83C20.2728 83 16.0421 81.7988 12.2518 79.3965C8.48819 76.9675 5.49858 73.4041 3.28311 68.7062C1.09434 63.9817 0 58.1894 0 51.3295C0 44.2827 1.1344 38.4237 3.40325 33.7525C5.67211 29.0547 8.68833 25.5446 12.452 23.2224C16.2423 20.8734 20.393 19.699 24.904 19.699C28.3473 19.699 31.2167 20.2862 33.5123 21.4607C35.8345 22.6085 37.703 24.0498 39.1177 25.7848C40.5591 27.4932 41.6534 29.1748 42.4008 30.8297H42.9213V0H59.9377V81.999H43.1215V72.1495H42.4008C41.6 73.8578 40.4656 75.5528 38.9976 77.2344C37.5562 78.8894 35.6744 80.264 33.3521 81.3584C31.0566 82.4528 28.2538 83 24.944 83ZM30.3492 69.4269C33.0985 69.4269 35.4208 68.6795 37.3159 67.1847C39.2378 65.6633 40.7059 63.5412 41.7202 60.8186C42.7612 58.096 43.2817 54.9062 43.2817 51.2494C43.2817 47.5925 42.7746 44.4161 41.7602 41.7202C40.7459 39.0243 39.2779 36.9423 37.356 35.4742C35.4342 34.0061 33.0985 33.2721 30.3492 33.2721C27.5465 33.2721 25.1843 34.0328 23.2624 35.5543C21.3406 37.0757 19.8858 39.1844 18.8982 41.8804C17.9106 44.5763 17.4168 47.6993 17.4168 51.2494C17.4168 54.8262 17.9106 57.9892 18.8982 60.7385C19.9125 63.4612 21.3673 65.5965 23.2624 67.1447C25.1843 68.6662 27.5465 69.4269 30.3492 69.4269Z" fill="#D1BBE1"/>
</svg>
