<svg width="65" height="84" viewBox="0 0 65 84" fill="none" xmlns="http://www.w3.org/2000/svg">
<path d="M46.9682 24.6214C46.6489 21.4024 45.2789 18.9017 42.858 17.1192C40.4371 15.3368 37.1515 14.4456 33.0014 14.4456C30.1815 14.4456 27.8005 14.8447 25.8584 15.6428C23.9164 16.4143 22.4266 17.4917 21.3891 18.8751C20.3782 20.2584 19.8727 21.828 19.8727 23.5839C19.8195 25.047 20.1254 26.324 20.7905 27.4147C21.4822 28.5055 22.4266 29.4499 23.6238 30.248C24.8209 31.0195 26.2043 31.6979 27.7739 32.2831C29.3435 32.8418 31.0195 33.3207 32.8019 33.7197L40.1444 35.4755C43.7093 36.2736 46.9815 37.3378 49.9611 38.6679C52.9406 39.9981 55.5212 41.6342 57.7026 43.5762C59.8841 45.5183 61.5734 47.8062 62.7705 50.4399C63.9943 53.0736 64.6195 56.0931 64.6461 59.4983C64.6195 64.4998 63.3425 68.8361 60.8152 72.5074C58.3145 76.152 54.6964 78.9853 49.9611 81.0071C45.2523 83.0024 39.5724 84 32.9216 84C26.324 84 20.5777 82.9891 15.6827 80.9672C10.8143 78.9454 7.00999 75.9525 4.26984 71.9886C1.5563 67.9981 0.133017 63.0632 0 57.1838H16.7202C16.9064 59.924 17.6912 62.2119 19.0746 64.0475C20.4846 65.8565 22.3601 67.2266 24.7012 68.1577C27.0689 69.0622 29.7425 69.5145 32.7221 69.5145C35.6485 69.5145 38.1891 69.0888 40.3439 68.2375C42.5254 67.3862 44.2147 66.2024 45.4119 64.686C46.609 63.1696 47.2076 61.4271 47.2076 59.4584C47.2076 57.6228 46.6622 56.0798 45.5715 54.8295C44.5074 53.5791 42.9378 52.515 40.8627 51.6371C38.8142 50.7591 36.3002 49.961 33.3207 49.2428L24.4219 47.0081C17.5316 45.3321 12.0912 42.7116 8.10073 39.1468C4.11023 35.5819 2.12827 30.78 2.15487 24.7411C2.12827 19.7929 3.44513 15.4698 6.10547 11.772C8.7924 8.07411 12.477 5.18765 17.1591 3.11259C21.8413 1.03753 27.162 0 33.1212 0C39.1867 0 44.4808 1.03753 49.0033 3.11259C53.5525 5.18765 57.0907 8.07411 59.6181 11.772C62.1454 15.4698 63.4489 19.753 63.5288 24.6214H46.9682Z" fill="#D1BBE1"/>
</svg>
