<svg width="38" height="77" viewBox="0 0 38 77" fill="none" xmlns="http://www.w3.org/2000/svg">
<path d="M36.8836 14.6737V27.4334H0V14.6737H36.8836ZM8.37356 0H25.3599V57.0998C25.3599 58.6681 25.5992 59.8909 26.0777 60.7682C26.5562 61.6188 27.2207 62.2169 28.0714 62.5625C28.9486 62.9081 29.9588 63.0809 31.1018 63.0809C31.8993 63.0809 32.6968 63.0144 33.4943 62.8815C34.2917 62.722 34.9031 62.6024 35.3285 62.5226L38 75.1627C37.1494 75.4286 35.9532 75.7343 34.4114 76.0798C32.8696 76.452 30.9955 76.678 28.7891 76.7577C24.6954 76.9172 21.1067 76.3723 18.0231 75.1229C14.9661 73.8735 12.5869 71.9329 10.8856 69.3012C9.18431 66.6695 8.34698 63.3467 8.37356 59.3327V0Z" fill="#D1BBE1"/>
</svg>
