<svg width="787" height="106" viewBox="0 0 787 106" fill="none" xmlns="http://www.w3.org/2000/svg">
<path d="M740.45 105.604C738.3 105.604 736.282 105.431 734.397 105.086C732.539 104.767 730.999 104.356 729.778 103.852L733.601 91.1887C735.592 91.7993 737.384 92.1311 738.977 92.1842C740.596 92.2373 741.99 91.8657 743.158 91.0693C744.352 90.2729 745.321 88.919 746.065 87.0076L747.06 84.4193L725.119 21.503H742.959L755.622 66.4204H756.259L769.041 21.503H787L763.227 89.2773C762.086 92.5692 760.533 95.4362 758.568 97.8785C756.63 100.347 754.175 102.246 751.201 103.573C748.228 104.927 744.644 105.604 740.45 105.604Z" fill="#D1BBE1"/>
<path d="M681.227 83.6628C676.582 83.6628 672.374 82.4681 668.604 80.0789C664.861 77.6632 661.888 74.1191 659.685 69.4469C657.508 64.7481 656.419 58.9874 656.419 52.1648C656.419 45.1564 657.548 39.3294 659.804 34.6837C662.061 30.0114 665.06 26.5205 668.804 24.2109C672.573 21.8748 676.701 20.7067 681.188 20.7067C684.612 20.7067 687.466 21.2908 689.749 22.4588C692.059 23.6003 693.917 25.0339 695.324 26.7594C696.757 28.4584 697.846 30.1309 698.589 31.7768H699.107V1.11508H716.031V82.6673H699.306V72.8714H698.589C697.793 74.5704 696.665 76.2562 695.204 77.9286C693.771 79.5745 691.899 80.9417 689.59 82.0301C687.307 83.1186 684.519 83.6628 681.227 83.6628ZM686.603 70.1637C689.338 70.1637 691.647 69.4203 693.532 67.9337C695.443 66.4205 696.903 64.3101 697.912 61.6023C698.948 58.8945 699.465 55.7221 699.465 52.0852C699.465 48.4483 698.961 45.2892 697.952 42.6079C696.943 39.9267 695.483 37.856 693.572 36.396C691.66 34.9359 689.338 34.2058 686.603 34.2058C683.816 34.2058 681.466 34.9624 679.555 36.4756C677.644 37.9888 676.197 40.086 675.215 42.7672C674.232 45.4485 673.741 48.5545 673.741 52.0852C673.741 55.6425 674.232 58.7883 675.215 61.5226C676.223 64.2304 677.67 66.3542 679.555 67.8939C681.466 69.4071 683.816 70.1637 686.603 70.1637Z" fill="#D1BBE1"/>
<path d="M628.157 56.6246V21.503H645.12V82.6672H628.833V71.5573H628.196C626.816 75.1411 624.52 78.0214 621.307 80.1983C618.122 82.3751 614.233 83.4636 609.64 83.4636C605.552 83.4636 601.955 82.5344 598.849 80.6761C595.743 78.8179 593.314 76.1764 591.562 72.7519C589.836 69.3273 588.96 65.2258 588.933 60.4474V21.503H605.897V57.421C605.923 61.0314 606.892 63.8852 608.804 65.9824C610.715 68.0796 613.277 69.1282 616.489 69.1282C618.533 69.1282 620.445 68.6637 622.223 67.7345C624.002 66.7788 625.435 65.3718 626.524 63.5135C627.639 61.6553 628.183 59.3589 628.157 56.6246Z" fill="#D1BBE1"/>
<path d="M577.883 21.5029V34.2455H541.05V21.5029H577.883ZM549.412 6.84903H566.375V63.8718C566.375 65.4381 566.614 66.6593 567.092 67.5353C567.57 68.3848 568.234 68.9821 569.083 69.3272C569.959 69.6723 570.968 69.8449 572.11 69.8449C572.906 69.8449 573.702 69.7785 574.499 69.6458C575.295 69.4865 575.906 69.3671 576.33 69.2874L578.998 81.9105C578.149 82.1759 576.954 82.4812 575.415 82.8263C573.875 83.198 572.003 83.4237 569.8 83.5033C565.712 83.6626 562.128 83.1184 559.048 81.8707C555.996 80.623 553.62 78.685 551.921 76.0569C550.222 73.4287 549.385 70.1104 549.412 66.1018V6.84903Z" fill="#D1BBE1"/>
<path d="M516.431 24.5692C516.112 21.357 514.745 18.8616 512.329 17.083C509.913 15.3043 506.635 14.415 502.494 14.415C499.68 14.415 497.304 14.8132 495.366 15.6096C493.428 16.3795 491.941 17.4546 490.906 18.835C489.897 20.2155 489.393 21.7818 489.393 23.5339C489.34 24.9939 489.645 26.2682 490.309 27.3566C490.999 28.445 491.941 29.3875 493.136 30.1839C494.33 30.9537 495.711 31.6307 497.277 32.2147C498.843 32.7722 500.516 33.25 502.295 33.6482L509.621 35.4003C513.179 36.1967 516.444 37.2586 519.417 38.586C522.391 39.9133 524.966 41.5459 527.142 43.4839C529.319 45.4218 531.005 47.7048 532.2 50.333C533.421 52.9611 534.045 55.9742 534.071 59.3722C534.045 64.363 532.77 68.6902 530.248 72.3537C527.753 75.9906 524.143 78.8178 519.417 80.8354C514.718 82.8264 509.051 83.8219 502.414 83.8219C495.83 83.8219 490.096 82.8131 485.212 80.7956C480.353 78.778 476.557 75.7915 473.823 71.836C471.115 67.854 469.695 62.9295 469.562 57.0626H486.247C486.433 59.797 487.216 62.08 488.596 63.9117C490.003 65.7169 491.875 67.0841 494.211 68.0132C496.574 68.9158 499.242 69.3671 502.215 69.3671C505.135 69.3671 507.67 68.9424 509.821 68.0929C511.997 67.2434 513.683 66.062 514.878 64.5489C516.072 63.0357 516.67 61.2969 516.67 59.3324C516.67 57.5007 516.125 55.9609 515.037 54.7132C513.975 53.4655 512.409 52.4036 510.338 51.5276C508.294 50.6515 505.785 49.8551 502.812 49.1384L493.932 46.9084C487.057 45.236 481.628 42.6211 477.646 39.0638C473.664 35.5065 471.686 30.7148 471.712 24.6886C471.686 19.7509 473 15.437 475.655 11.747C478.336 8.057 482.013 5.17665 486.685 3.10599C491.357 1.03533 496.667 0 502.613 0C508.666 0 513.949 1.03533 518.462 3.10599C523.001 5.17665 526.532 8.057 529.054 11.747C531.576 15.437 532.877 19.7111 532.956 24.5692H516.431Z" fill="#D1BBE1"/>
<path d="M390.687 105.604C388.537 105.604 386.52 105.431 384.635 105.086C382.776 104.767 381.237 104.356 380.016 103.852L383.838 91.1887C385.829 91.7993 387.621 92.1311 389.214 92.1842C390.833 92.2373 392.227 91.8657 393.395 91.0693C394.59 90.2729 395.559 88.919 396.302 87.0076L397.298 84.4193L375.357 21.503H393.196L405.859 66.4204H406.496L419.278 21.503H437.237L413.465 89.2773C412.323 92.5692 410.77 95.4362 408.806 97.8785C406.868 100.347 404.412 102.246 401.439 103.573C398.466 104.927 394.882 105.604 390.687 105.604Z" fill="#D1BBE1"/>
<path d="M334.8 83.822C330.897 83.822 327.419 83.145 324.367 81.7912C321.314 80.4107 318.898 78.3799 317.119 75.6986C315.367 72.9908 314.491 69.6194 314.491 65.5843C314.491 62.1862 315.115 59.3325 316.363 57.0229C317.61 54.7133 319.309 52.855 321.46 51.448C323.61 50.041 326.052 48.9791 328.787 48.2624C331.548 47.5456 334.441 47.0412 337.467 46.7492C341.025 46.3775 343.892 46.0324 346.069 45.7139C348.246 45.3688 349.825 44.8644 350.807 44.2007C351.79 43.537 352.281 42.5548 352.281 41.254V41.0151C352.281 38.4931 351.484 36.5419 349.891 35.1615C348.325 33.781 346.095 33.0908 343.202 33.0908C340.149 33.0908 337.72 33.7678 335.914 35.1217C334.109 36.449 332.915 38.1215 332.331 40.139L316.641 38.8648C317.438 35.1482 319.004 31.936 321.34 29.2282C323.676 26.4939 326.689 24.3967 330.379 22.9366C334.096 21.45 338.397 20.7067 343.281 20.7067C346.679 20.7067 349.931 21.1049 353.037 21.9013C356.17 22.6977 358.944 23.9321 361.36 25.6046C363.802 27.277 365.727 29.4273 367.134 32.0555C368.541 34.6571 369.244 37.7763 369.244 41.4133V82.6672H353.157V74.1855H352.679C351.697 76.0968 350.383 77.7826 348.737 79.2427C347.091 80.6762 345.113 81.8044 342.803 82.6274C340.494 83.4238 337.826 83.822 334.8 83.822ZM339.658 72.1148C342.153 72.1148 344.356 71.6237 346.268 70.6414C348.179 69.6327 349.679 68.2788 350.768 66.5798C351.856 64.8808 352.4 62.9561 352.4 60.8058V54.3151C351.869 54.6602 351.139 54.9788 350.21 55.2708C349.307 55.5362 348.285 55.7884 347.144 56.0274C346.002 56.2397 344.861 56.4388 343.719 56.6247C342.578 56.7839 341.542 56.93 340.613 57.0627C338.622 57.3547 336.883 57.8193 335.397 58.4564C333.91 59.0935 332.755 59.9563 331.932 61.0447C331.11 62.1066 330.698 63.434 330.698 65.0268C330.698 67.3364 331.534 69.1017 333.207 70.3229C334.906 71.5175 337.056 72.1148 339.658 72.1148Z" fill="#D1BBE1"/>
<path d="M265.005 82.6673H236.095V1.11508H265.244C273.447 1.11508 280.508 2.74772 286.428 6.01299C292.348 9.25171 296.901 13.9107 300.086 19.99C303.299 26.0692 304.905 33.3431 304.905 41.8115C304.905 50.3065 303.299 57.607 300.086 63.7127C296.901 69.8185 292.322 74.5041 286.348 77.7693C280.402 81.0346 273.287 82.6673 265.005 82.6673ZM253.337 67.8939H264.288C269.385 67.8939 273.672 66.9913 277.15 65.1861C280.654 63.3544 283.282 60.5271 285.034 56.7044C286.813 52.8551 287.702 47.8908 287.702 41.8115C287.702 35.7854 286.813 30.8609 285.034 27.0382C283.282 23.2154 280.667 20.4014 277.19 18.5962C273.712 16.791 269.425 15.8884 264.328 15.8884H253.337V67.8939Z" fill="#D1BBE1"/>
<path d="M154.592 105.604C152.442 105.604 150.424 105.431 148.54 105.086C146.681 104.767 145.142 104.356 143.92 103.852L147.743 91.1887C149.734 91.7993 151.526 92.1311 153.119 92.1842C154.738 92.2373 156.132 91.8657 157.3 91.0693C158.495 90.2729 159.464 88.919 160.207 87.0076L161.203 84.4193L139.261 21.503H157.101L169.764 66.4204H170.401L183.183 21.503H201.142L177.37 89.2773C176.228 92.5692 174.675 95.4362 172.711 97.8785C170.773 100.347 168.317 102.246 165.344 103.573C162.371 104.927 158.787 105.604 154.592 105.604Z" fill="#D1BBE1"/>
<path d="M98.7044 83.822C94.802 83.822 91.3244 83.145 88.2715 81.7912C85.2186 80.4107 82.8028 78.3799 81.0241 75.6986C79.272 72.9908 78.396 69.6194 78.396 65.5843C78.396 62.1862 79.0198 59.3325 80.2676 57.0229C81.5153 54.7133 83.2143 52.855 85.3646 51.448C87.5149 50.041 89.9572 48.9791 92.6915 48.2624C95.4524 47.5456 98.346 47.0412 101.372 46.7492C104.93 46.3775 107.797 46.0324 109.974 45.7139C112.15 45.3688 113.73 44.8644 114.712 44.2007C115.694 43.537 116.186 42.5548 116.186 41.254V41.0151C116.186 38.4931 115.389 36.5419 113.796 35.1615C112.23 33.781 110 33.0908 107.107 33.0908C104.054 33.0908 101.625 33.7678 99.8194 35.1217C98.0142 36.449 96.8196 38.1215 96.2355 40.139L80.5463 38.8648C81.3427 35.1482 82.909 31.936 85.2451 29.2282C87.5812 26.4939 90.5943 24.3967 94.2843 22.9366C98.0009 21.45 102.302 20.7067 107.186 20.7067C110.584 20.7067 113.836 21.1049 116.942 21.9013C120.075 22.6977 122.849 23.9321 125.265 25.6046C127.707 27.277 129.632 29.4273 131.039 32.0555C132.446 34.6571 133.149 37.7763 133.149 41.4133V82.6672H117.062V74.1855H116.584C115.602 76.0968 114.287 77.7826 112.642 79.2427C110.996 80.6762 109.018 81.8044 106.708 82.6274C104.399 83.4238 101.731 83.822 98.7044 83.822ZM103.562 72.1148C106.058 72.1148 108.261 71.6237 110.173 70.6414C112.084 69.6327 113.584 68.2788 114.672 66.5798C115.761 64.8808 116.305 62.9561 116.305 60.8058V54.3151C115.774 54.6602 115.044 54.9788 114.115 55.2708C113.212 55.5362 112.19 55.7884 111.049 56.0274C109.907 56.2397 108.766 56.4388 107.624 56.6247C106.483 56.7839 105.447 56.93 104.518 57.0627C102.527 57.3547 100.788 57.8193 99.3017 58.4564C97.8151 59.0935 96.6603 59.9563 95.8373 61.0447C95.0144 62.1066 94.6029 63.434 94.6029 65.0268C94.6029 67.3364 95.4391 69.1017 97.1116 70.3229C98.8106 71.5175 100.961 72.1148 103.562 72.1148Z" fill="#D1BBE1"/>
<path d="M28.9096 82.6673H0V1.11508H29.1485C37.3515 1.11508 44.413 2.74772 50.333 6.01299C56.253 9.25171 60.8058 13.9107 63.9914 19.99C67.2036 26.0692 68.8096 33.3431 68.8096 41.8115C68.8096 50.3065 67.2036 57.607 63.9914 63.7127C60.8058 69.8185 56.2264 74.5041 50.2533 77.7693C44.3068 81.0346 37.1922 82.6673 28.9096 82.6673ZM17.2422 67.8939H28.1928C33.2899 67.8939 37.5772 66.9913 41.0548 65.1861C44.559 63.3544 47.1872 60.5271 48.9393 56.7044C50.7179 52.8551 51.6072 47.8908 51.6072 41.8115C51.6072 35.7854 50.7179 30.8609 48.9393 27.0382C47.1872 23.2154 44.5723 20.4014 41.0946 18.5962C37.617 16.791 33.3297 15.8884 28.2327 15.8884H17.2422V67.8939Z" fill="#D1BBE1"/>
</svg>
