<svg width="28" height="32" viewBox="0 0 28 32" fill="none" xmlns="http://www.w3.org/2000/svg">
<path d="M11.7415 32H0V0H11.8386C15.1702 0 18.0382 0.640625 20.4426 1.92188C22.847 3.19271 24.6961 5.02083 25.9899 7.40625C27.2945 9.79167 27.9468 12.6458 27.9468 15.9687C27.9468 19.3021 27.2945 22.1667 25.9899 24.5625C24.6961 26.9583 22.8362 28.7969 20.4102 30.0781C17.9951 31.3594 15.1055 32 11.7415 32ZM7.00287 26.2031H11.4504C13.5206 26.2031 15.2618 25.849 16.6743 25.1406C18.0975 24.4219 19.1649 23.3125 19.8765 21.8125C20.5989 20.3021 20.9601 18.3542 20.9601 15.9687C20.9601 13.6042 20.5989 11.6719 19.8765 10.1719C19.1649 8.67187 18.1029 7.56771 16.6905 6.85937C15.278 6.15104 13.5367 5.79688 11.4666 5.79688H7.00287V26.2031Z" fill="#461859"/>
</svg>
