<svg width="26" height="32" viewBox="0 0 26 32" fill="none" xmlns="http://www.w3.org/2000/svg">
<path d="M18.5201 9.37957C18.3942 8.15329 17.854 7.20063 16.8994 6.52161C15.9448 5.8426 14.6493 5.50309 13.0128 5.50309C11.9009 5.50309 10.962 5.65511 10.1963 5.95915C9.4305 6.25305 8.84305 6.6635 8.43394 7.1905C8.03532 7.7175 7.83602 8.31544 7.83602 8.98432C7.81504 9.54173 7.93567 10.0282 8.19792 10.4437C8.47066 10.8592 8.84306 11.219 9.31511 11.523C9.78716 11.8169 10.3326 12.0754 10.9515 12.2983C11.5705 12.5112 12.2313 12.6936 12.9342 12.8456L15.8294 13.5145C17.2351 13.8185 18.5253 14.2239 19.7002 14.7306C20.8751 15.2374 21.8926 15.8606 22.7528 16.6005C23.613 17.3403 24.2791 18.2119 24.7511 19.2152C25.2337 20.2185 25.4802 21.3688 25.4907 22.666C25.4802 24.5713 24.9767 26.2233 23.9801 27.6219C22.9941 29.0103 21.5674 30.0896 19.7002 30.8599C17.8435 31.6199 15.6039 32 12.9814 32C10.3798 32 8.114 31.6149 6.18384 30.8447C4.26417 30.0744 2.7641 28.9343 1.68363 27.4242C0.613653 25.904 0.05245 24.0241 0 21.7843H6.59294C6.66637 22.8282 6.97584 23.6998 7.52132 24.399C8.07729 25.0882 8.81683 25.6101 9.73995 25.9648C10.6736 26.3094 11.7278 26.4817 12.9027 26.4817C14.0566 26.4817 15.0584 26.3196 15.9081 25.9952C16.7682 25.6709 17.4344 25.2199 17.9064 24.6423C18.3785 24.0646 18.6145 23.4008 18.6145 22.6508C18.6145 21.9515 18.3994 21.3637 17.9694 20.8874C17.5498 20.4111 16.9308 20.0057 16.1126 19.6713C15.3049 19.3368 14.3136 19.0328 13.1387 18.7591L9.6298 17.9078C6.91289 17.2694 4.7677 16.2711 3.1942 14.9131C1.6207 13.555 0.839196 11.7257 0.849686 9.42518C0.839196 7.54014 1.35845 5.89327 2.40745 4.48456C3.46694 3.07585 4.91979 1.97625 6.76603 1.18575C8.61227 0.39525 10.7103 0 13.06 0C15.4518 0 17.5393 0.39525 19.3226 1.18575C21.1163 1.97625 22.5115 3.07585 23.5081 4.48456C24.5046 5.89327 25.0186 7.52494 25.0501 9.37957H18.5201Z" fill="#D13E92"/>
</svg>
