<svg width="182" height="32" viewBox="0 0 182 32" fill="none" xmlns="http://www.w3.org/2000/svg">
<path d="M151.566 0H159.238L166.625 13.4787H166.941L174.328 0H182L170.184 20.2333V31.2974H163.382V20.2333L151.566 0Z" fill="#461859"/>
<path d="M129.034 31.2974H121.694L132.878 0H141.704L152.871 31.2974H145.532L137.417 7.15195H137.164L129.034 31.2974ZM128.575 18.9954H145.912V24.1607H128.575V18.9954Z" fill="#461859"/>
<path d="M104.354 31.2974H92.8705V0H104.449C107.708 0 110.513 0.62656 112.864 1.87968C115.216 3.12261 117.024 4.9106 118.29 7.24364C119.566 9.57668 120.204 12.3682 120.204 15.6181C120.204 18.8783 119.566 21.68 118.29 24.0232C117.024 26.3664 115.205 28.1646 112.833 29.4177C110.47 30.6708 107.644 31.2974 104.354 31.2974ZM99.7196 25.6278H104.069C106.094 25.6278 107.797 25.2814 109.179 24.5886C110.571 23.8857 111.615 22.8006 112.311 21.3336C113.017 19.8563 113.37 17.9512 113.37 15.6181C113.37 13.3055 113.017 11.4156 112.311 9.94854C111.615 8.48148 110.576 7.40155 109.194 6.70877C107.813 6.01599 106.11 5.6696 104.085 5.6696H99.7196V25.6278Z" fill="#461859"/>
<path d="M58.696 0H66.3677L73.7546 13.4787H74.071L81.4579 0H89.1295L77.3136 20.2333V31.2974H70.5119V20.2333L58.696 0Z" fill="#461859"/>
<path d="M36.1635 31.2974H28.824L40.0072 0H48.8336L60.001 31.2974H52.6615L44.547 7.15195H44.2939L36.1635 31.2974ZM35.7048 18.9954H53.0411V24.1607H35.7048V18.9954Z" fill="#461859"/>
<path d="M11.4837 31.2974H0V0H11.5787C14.8371 0 17.6422 0.62656 19.9937 1.87968C22.3453 3.12261 24.1538 4.9106 25.4193 7.24364C26.6952 9.57668 27.3332 12.3682 27.3332 15.6181C27.3332 18.8783 26.6952 21.68 25.4193 24.0232C24.1538 26.3664 22.3348 28.1646 19.9621 29.4177C17.6 30.6708 14.7739 31.2974 11.4837 31.2974ZM6.84912 25.6278H11.199C13.2237 25.6278 14.9268 25.2814 16.3082 24.5886C17.7002 23.8857 18.7441 22.8006 19.4401 21.3336C20.1466 19.8563 20.4999 17.9512 20.4999 15.6181C20.4999 13.3055 20.1466 11.4156 19.4401 9.94854C18.7441 8.48148 17.7054 7.40155 16.324 6.70877C14.9426 6.01599 13.2395 5.6696 11.2148 5.6696H6.84912V25.6278Z" fill="#461859"/>
</svg>
