<svg width="27" height="32" viewBox="0 0 27 32" fill="none" xmlns="http://www.w3.org/2000/svg">
<path d="M20.1148 0H27V20.4319C27 22.726 26.4328 24.7334 25.2986 26.4539C24.1749 28.1745 22.6007 29.5162 20.576 30.4789C18.5512 31.4313 16.1926 31.9076 13.5 31.9076C10.7968 31.9076 8.43285 31.4313 6.40811 30.4789C4.38338 29.5162 2.80917 28.1745 1.6855 26.4539C0.561822 24.7334 0 22.726 0 20.4319V0H6.88515V19.8635C6.88515 21.0618 7.15548 22.1269 7.69611 23.0589C8.24735 23.9908 9.02119 24.7231 10.0177 25.2557C11.0141 25.7882 12.1749 26.0545 13.5 26.0545C14.8357 26.0545 15.9964 25.7882 16.9823 25.2557C17.9788 24.7231 18.7473 23.9908 19.288 23.0589C19.8392 22.1269 20.1148 21.0618 20.1148 19.8635V0Z" fill="#D13E92"/>
</svg>
