<svg width="7" height="7" viewBox="0 0 7 7" fill="none" xmlns="http://www.w3.org/2000/svg">
<path d="M2.7456 0.237466C2.82471 -0.0379786 3.17764 -0.0861056 3.32761 0.158101L4.31472 1.76548C4.37584 1.86501 4.4817 1.92484 4.59425 1.92348L6.41192 1.90148C6.68808 1.89814 6.84503 2.23448 6.67075 2.45612L5.52362 3.91503C5.45259 4.00536 5.43204 4.12833 5.46936 4.23975L6.07204 6.03914C6.16361 6.31252 5.90768 6.56852 5.65 6.46129L3.95393 5.75557C3.84891 5.71187 3.73035 5.72804 3.64087 5.79826L2.19567 6.93234C1.97611 7.10464 1.66098 6.92652 1.67601 6.6386L1.7749 4.74354C1.78103 4.6262 1.72831 4.51322 1.63568 4.4452L0.139817 3.34671C-0.0874473 3.17981 -0.0262785 2.81374 0.24069 2.74302L1.99789 2.27753C2.10669 2.2487 2.19266 2.16271 2.2249 2.05045L2.7456 0.237466Z" fill="#49175C"/>
</svg>
