<svg width="14" height="14" viewBox="0 0 14 14" fill="none" xmlns="http://www.w3.org/2000/svg">
<path d="M6.12509 0.420256C6.33623 -0.116817 7.05287 -0.145937 7.30689 0.372235L9.00489 3.83596C9.10841 4.04714 9.30918 4.18729 9.53506 4.20604L13.2396 4.51357C13.7938 4.55958 14.0443 5.26376 13.6526 5.67483L11.0346 8.42261C10.875 8.59014 10.8103 8.83273 10.8639 9.06321L11.7421 12.8433C11.8735 13.4088 11.3116 13.8732 10.8155 13.6091L7.49951 11.8436C7.29733 11.7359 7.0566 11.7457 6.86382 11.8694L3.70198 13.8981C3.22897 14.2016 2.63129 13.7844 2.71635 13.2101L3.28495 9.37117C3.31962 9.13711 3.23549 8.90056 3.0628 8.74653L0.230496 6.22022C-0.193216 5.84228 -0.000741592 5.1201 0.547903 5.02928L4.21532 4.4222C4.43893 4.38518 4.62767 4.22921 4.71372 4.01032L6.12509 0.420256Z" fill="#E6E3F5"/>
</svg>
