<svg width="13" height="13" viewBox="0 0 13 13" fill="none" xmlns="http://www.w3.org/2000/svg">
<path d="M8.06253 0.175727C8.50466 -0.216488 9.17278 0.0897185 9.16431 0.680687L9.1162 4.03737C9.11274 4.27822 9.23109 4.49939 9.4287 4.62139L12.1828 6.32171C12.6676 6.62107 12.5696 7.38017 12.021 7.57354L8.90536 8.67185C8.6818 8.75066 8.51015 8.94209 8.45209 9.17734L7.64289 12.456C7.50042 13.0332 6.77169 13.1961 6.44114 12.7247L4.56367 10.0468C4.42895 9.85464 4.20452 9.75178 3.97102 9.77517L0.716841 10.1012C0.143917 10.1585 -0.208385 9.50015 0.135864 9.0154L2.09119 6.26206C2.23149 6.0645 2.26444 5.8095 2.17819 5.58871L0.976194 2.51155C0.764574 1.96979 1.27557 1.39994 1.81887 1.57181L4.90481 2.54803C5.12623 2.61808 5.37102 2.56335 5.55122 2.40349L8.06253 0.175727Z" fill="#49175C"/>
</svg>
