<svg width="8" height="8" viewBox="0 0 8 8" fill="none" xmlns="http://www.w3.org/2000/svg">
<path d="M2.51839 0.440533C2.57952 -0.00251798 3.11478 -0.155727 3.40108 0.187878L4.59523 1.62105C4.71191 1.76109 4.88897 1.82983 5.06277 1.80257L6.84153 1.52358C7.26799 1.45669 7.58558 1.941 7.36525 2.32225L6.44629 3.91243C6.3565 4.06781 6.35205 4.26231 6.43456 4.42603L7.27891 6.10156C7.48135 6.50327 7.14236 6.95581 6.71989 6.84782L4.9578 6.39744C4.78562 6.35343 4.60582 6.40489 4.483 6.53334L3.22608 7.84787C2.92473 8.16303 2.39764 7.95839 2.35687 7.51041L2.18679 5.64187C2.17018 5.45929 2.0635 5.29661 1.90509 5.21227L0.283914 4.34916C-0.104764 4.14222 -0.091536 3.56322 0.305728 3.39434L1.96271 2.6899C2.12462 2.62107 2.23849 2.46906 2.26341 2.28849L2.51839 0.440533Z" fill="#CE418F"/>
</svg>
