<svg width="9" height="9" viewBox="0 0 9 9" fill="none" xmlns="http://www.w3.org/2000/svg">
<path d="M4.59294 0.184919C4.86573 -0.149189 5.38292 -0.00651073 5.44582 0.420206L5.7744 2.64916C5.80004 2.82308 5.91114 2.9686 6.06779 3.03345L8.07542 3.86456C8.45977 4.02367 8.47774 4.58196 8.10505 4.78522L6.15833 5.84699C6.00644 5.92983 5.9051 6.08775 5.89074 6.26399L5.70658 8.52286C5.67133 8.9553 5.16524 9.15766 4.87201 8.85657L3.34029 7.28382C3.22078 7.16111 3.04704 7.11318 2.88152 7.15726L0.76007 7.7222C0.353935 7.83036 0.0231909 7.39714 0.214646 7.00779L1.21471 4.97401C1.29274 4.81532 1.28671 4.62779 1.19877 4.47878L0.0718002 2.56907C-0.143951 2.20348 0.157723 1.73337 0.569285 1.79382L2.71908 2.10963C2.88682 2.13427 3.05682 2.0663 3.168 1.93013L4.59294 0.184919Z" fill="#CE418F"/>
</svg>
