<svg width="69" height="82" viewBox="0 0 69 82" fill="none" xmlns="http://www.w3.org/2000/svg">
<path d="M28.9896 81.7778H0V0H29.2292C37.4549 0 44.5359 1.63715 50.4722 4.91146C56.4086 8.15914 60.974 12.831 64.1684 18.9271C67.3895 25.0231 69 32.3171 69 40.809C69 49.3275 67.3895 56.6481 64.1684 62.7708C60.974 68.8935 56.3819 73.592 50.3924 76.8663C44.4294 80.1406 37.2951 81.7778 28.9896 81.7778ZM17.2899 66.9635H28.2708C33.3819 66.9635 37.6811 66.0584 41.1684 64.2483C44.6823 62.4115 47.3177 59.5764 49.0747 55.7431C50.8582 51.8831 51.75 46.9051 51.75 40.809C51.75 34.7662 50.8582 29.8281 49.0747 25.9948C47.3177 22.1615 44.6956 19.3397 41.2083 17.5295C37.7211 15.7193 33.4219 14.8142 28.3108 14.8142H17.2899V66.9635Z" fill="#D1BBE1"/>
</svg>
