<svg width="62" height="85" viewBox="0 0 62 85" fill="none" xmlns="http://www.w3.org/2000/svg">
<path d="M15.3604 84.2626C13.2059 84.2626 11.1845 84.0897 9.29601 83.7439C7.43415 83.4247 5.89147 83.0125 4.66796 82.5071L8.49807 69.8198C10.4929 70.4316 12.2883 70.7641 13.8842 70.8173C15.5067 70.8705 16.903 70.4981 18.0734 69.7001C19.2703 68.9022 20.2411 67.5457 20.9858 65.6306L21.9833 63.0373L0 0H17.8739L30.5611 45.0039H31.1995L44.0064 0H62L38.1815 67.9048C37.0378 71.2029 35.4818 74.0755 33.5135 76.5225C31.5719 78.9962 29.1116 80.8979 26.1326 82.2278C23.1536 83.5843 19.5629 84.2626 15.3604 84.2626Z" fill="#D1BBE1"/>
</svg>
