<svg width="152" height="155" viewBox="0 0 152 155" fill="none" xmlns="http://www.w3.org/2000/svg">
<path d="M46.0082 108.992L42.3593 89.1607C48.9696 87.9444 55.5271 86.6487 62.0317 85.2738V62.349H44.739V44.263H62.0317V27.8429L47.2774 28.7155C46.4312 21.5234 45.5322 15.4947 44.5803 10.6295C61.3971 9.88912 77.5264 8.61992 92.9683 6.8219L96.6172 24.5906L80.435 26.3357V44.263H100.345C99.9224 30.9365 99.6844 16.1822 99.6315 0H118.193C118.088 16.2351 118.193 30.9894 118.511 44.263H150.399V62.349H119.066C119.489 72.6083 120.044 81.7835 120.732 89.8746C125.862 83.0527 130.092 75.6755 133.424 67.7431L148.971 75.8342C142.52 90.1655 134.138 102.91 123.826 114.069C126.047 125.703 128.559 131.52 131.361 131.52C132.789 131.52 133.9 129.325 134.693 124.936C135.539 120.547 136.332 113.646 137.073 104.232L151.668 111.53C150.505 121.314 149.183 129.51 147.702 136.121C146.221 142.784 144.053 147.596 141.198 150.558C138.342 153.519 134.957 155 131.044 155C120.732 155 113.196 146.195 108.437 128.585C102.672 133.186 96.4585 137.443 89.7953 141.356C87.4155 137.39 84.2955 132.551 80.435 126.84V131.996C80.435 137.866 79.2716 142.414 76.9447 145.64C74.6179 148.918 71.2069 150.875 66.7119 151.51C62.2168 152.197 55.6329 152.356 46.9601 151.986C46.0082 145.745 44.7919 139.452 43.3112 133.106C49.9215 133.635 53.5176 133.9 54.0993 133.9C59.3876 133.9 62.0317 131.203 62.0317 125.809V104.708L46.0082 108.992ZM104.47 107.326C102.99 95.4802 101.826 80.4879 100.98 62.349H80.435V81.3869L96.1412 77.738C95.8239 85.4589 95.7182 91.6462 95.8239 96.2999L80.435 100.028V123.905C89.4251 118.987 97.4369 113.46 104.47 107.326ZM131.996 4.75947C139.294 13.3265 145.375 21.0474 150.241 27.9222L135.962 37.5998C130.145 28.927 124.381 20.9945 118.669 13.8025L131.996 4.75947ZM0 10.9468H41.566V130.092H16.1822V138.976H0V10.9468ZM25.7011 113.434V27.6049H16.1822V113.434H25.7011Z" fill="#4A168F"/>
</svg>
