<svg width="29" height="125" viewBox="0 0 29 125" fill="none" xmlns="http://www.w3.org/2000/svg">
<path d="M27.0984 0L24.1667 85.3361H4.5164L1.74317 0H27.0984ZM14.4208 98.3307C18.4354 98.3307 21.8689 99.6249 24.7213 102.213C27.5738 104.802 29 107.945 29 111.642C29 115.234 27.5738 118.324 24.7213 120.913C21.8689 123.501 18.4354 124.795 14.4208 124.795C10.4062 124.795 6.9991 123.501 4.19946 120.913C1.39982 118.324 0 115.234 0 111.642C0 107.945 1.39982 104.802 4.19946 102.213C6.9991 99.6249 10.4062 98.3307 14.4208 98.3307Z" fill="#4A168F"/>
</svg>
