<svg width="154" height="157" viewBox="0 0 154 157" fill="none" xmlns="http://www.w3.org/2000/svg">
<path d="M31.6852 1.26741C38.0222 8.44938 44.4649 16.4763 51.0131 25.3481L43.9632 30.1009H70.4203C65.9844 21.5987 61.8917 14.4168 58.1423 8.555L77.4702 0C81.6949 6.44265 86.6589 14.7864 92.3623 25.0313L81.4309 30.1009H100.838C108.073 19.6976 114.172 10.6673 119.136 3.01009L140.524 14.7336L127.691 30.1009H150.505V69.0737H128.325V49.4289H24.8729V69.0737H2.69324V30.1009H28.5959C23.9487 23.7111 19.4336 17.8493 15.0505 12.5156L31.6852 1.26741ZM0 97.9072H69.2321V93.7881L90.4612 80.005H32.4773V60.6771H121.671V79.8466L94.4218 97.9072H153.515V117.552H92.0454V133.711C92.0454 140.999 90.0123 146.676 85.946 150.742C81.8797 154.808 75.6483 156.868 67.2518 156.921C58.908 156.974 50.3266 157 41.5076 157C40.0289 149.712 38.2334 142.742 36.1211 136.088C44.148 136.51 51.4884 136.721 58.1423 136.721C65.5355 136.721 69.2321 133.5 69.2321 127.058V117.552H0V97.9072Z" fill="#4A168F"/>
</svg>
