<svg width="158" height="158" viewBox="0 0 158 158" fill="none" xmlns="http://www.w3.org/2000/svg">
<path d="M63.1999 5.71658L87.4954 0C89.6656 5.50485 91.9416 11.5919 94.3235 18.2613H151.648V49.5437H129.735V37.6341H28.7417V49.5437H6.82813V18.2613H68.0432L63.1999 5.71658ZM145.773 91.7828V111.314H92.7356V132.831C110.044 133.202 131.799 133.016 158 132.275C155.036 141.062 152.76 148.208 151.172 153.712C113.485 153.712 86.0927 153.13 68.9959 151.966C51.8991 150.854 39.8572 143.682 32.8703 130.449C27.4713 141.353 20.9079 150.484 13.1799 157.841C8.41607 150.748 4.02278 144.608 0 139.421C13.2328 125.976 21.7018 106.868 25.407 82.0964L46.6854 84.6371C45.3092 92.7885 43.5889 100.411 41.5246 107.503C46.9236 121.424 56.4247 129.443 70.0281 131.561V74.6331H4.28743V55.1015H154.03V74.6331H92.7356V91.7828H145.773Z" fill="#4A168F"/>
</svg>
