<svg width="141" height="142" viewBox="0 0 141 142" fill="none" xmlns="http://www.w3.org/2000/svg">
<path d="M79.2227 142C77.7468 134.621 75.8493 126.609 73.5301 117.964C84.8626 118.702 94.5085 119.071 102.468 119.071C109.215 119.071 113.22 115.988 114.486 109.821C115.803 103.654 116.647 74.1099 117.016 21.1893H5.06013V0H140.735C140.577 20.3987 140.155 42.8794 139.47 67.4421L137.889 115.118C137.52 122.339 135.49 128.137 131.801 132.512C128.111 136.887 123.209 139.523 117.095 140.419C111.033 141.315 98.409 141.842 79.2227 142ZM25.3007 41.588L38.2673 24.9844C55.0289 36.3697 69.2606 46.5427 80.9621 55.5033L65.3073 74.4788C51.9191 62.8827 38.5835 51.9191 25.3007 41.588ZM0 98.5145C39.954 87.4454 76.6926 75.9547 110.216 64.0423C110.216 68.997 110.321 76.4818 110.532 86.4966C79.9606 97.6711 45.8575 109.742 8.22272 122.708L0 98.5145Z" fill="#4A168F"/>
</svg>
