<svg width="157" height="151" viewBox="0 0 157 151" fill="none" xmlns="http://www.w3.org/2000/svg">
<path d="M0 84.6803H46.6137C48.9879 81.1453 51.1511 77.6632 53.1032 74.2337H7.75576V27.6992H48.7505V16.7778H2.84906V0H153.849V16.7778H107.789V27.6992H148.784V74.2337H76.1331C73.9172 77.8742 71.7276 81.3564 69.5645 84.6803H156.54V101.458H126.308C120.821 108.686 114.305 115.176 106.76 120.927L149.259 131.69L139.604 151C120.188 144.194 102.329 138.311 86.0257 133.352C66.0823 142.637 41.3113 148.52 11.7128 151C10.13 144.985 7.703 138.76 4.43187 132.323C25.4305 131.373 43.369 129.078 58.2474 125.438C44.4769 121.744 32.0783 118.869 21.0514 116.811C25.7998 111.641 30.2053 106.523 34.2678 101.458H0V84.6803ZM67.7442 27.6992H88.7956V16.7778H67.7442V27.6992ZM67.7442 58.0891H88.7956V43.8438H67.7442V58.0891ZM27.6992 58.0891H48.7505V43.8438H27.6992V58.0891ZM128.841 58.0891V43.8438H107.789V58.0891H128.841ZM52.2327 108.897C60.8326 110.427 71.6221 112.67 84.6011 115.624C91.7765 111.614 97.6857 106.892 102.329 101.458H58.0099C56.0578 104.096 54.1321 106.576 52.2327 108.897Z" fill="#4A168F"/>
</svg>
