<svg width="157" height="148" viewBox="0 0 157 148" fill="none" xmlns="http://www.w3.org/2000/svg">
<path d="M1.74118 50.6524H64.0278C65.3469 42.052 66.1911 32.3437 66.5604 21.5273H10.4471V0H147.209V21.5273H89.6706C89.2485 30.7608 88.6681 40.4692 87.9294 50.6524H155.281V72.4963H94.7358C106.396 99.1415 127.053 116.817 156.706 125.523C152.379 130.377 146.259 137.87 138.344 148C110.486 136.287 90.2246 115.762 77.5615 86.4257C68.1697 110.538 48.2781 130.799 17.8866 147.209C13.7711 141.932 7.80891 135.179 0 126.948C33.7683 111.646 53.4752 93.4959 59.1208 72.4963H1.74118V50.6524Z" fill="#4A168F"/>
</svg>
